HIERARCHY
ROOT Hips
{
  OFFSET -17.8222 7.7 127.125
  CHANNELS 6 Xposition Yposition Zposition Zrotation Xrotation Yrotation
  JOINT Spine
  {
    OFFSET 0 0 0
    CHANNELS 3 Zrotation Xrotation Yrotation
    JOINT Spine1
    {
      OFFSET 19 0 0
      CHANNELS 3 Zrotation Xrotation Yrotation
      JOINT Neck
      {
        OFFSET 22.5 0.6 0
        CHANNELS 3 Zrotation Xrotation Yrotation
        JOINT Head
        {
          OFFSET 14 0.0308777 0
          CHANNELS 3 Zrotation Xrotation Yrotation
          End Site
          {
            OFFSET 17 0 0
          }
        }
      }
      JOINT LeftShoulder
      {
        OFFSET 19.8 3.7 4.3
        CHANNELS 3 Zrotation Xrotation Yrotation
        JOINT LeftArm
        {
          OFFSET 8 0 0
          CHANNELS 3 Zrotation Xrotation Yrotation
          JOINT LeftForeArm
          {
            OFFSET 15.2 0 0
            CHANNELS 3 Zrotation Xrotation Yrotation
            JOINT LeftHand
            {
              OFFSET 17.8 0 0
              CHANNELS 3 Zrotation Xrotation Yrotation
              End Site
              {
                OFFSET 7.2 0 0
              }
            }
          }
        }
      }
      JOINT RightShoulder
      {
        OFFSET 19.8 3.7 -4.3
        CHANNELS 3 Zrotation Xrotation Yrotation
        JOINT RightArm
        {
          OFFSET 8 0 0.151654
          CHANNELS 3 Zrotation Xrotation Yrotation
          JOINT RightForeArm
          {
            OFFSET 15.2 0 0
            CHANNELS 3 Zrotation Xrotation Yrotation
            JOINT RightHand
            {
              OFFSET 17.8 0 0
              CHANNELS 3 Zrotation Xrotation Yrotation
              End Site
              {
                OFFSET 7.2 0 0
              }
            }
          }
        }
      }
    }
  }
  JOINT LeftUpLeg
  {
    OFFSET 5.98425 -7.666 4.78879
    CHANNELS 3 Zrotation Xrotation Yrotation
    JOINT LeftLeg
    {
      OFFSET 16 0 0
      CHANNELS 3 Zrotation Xrotation Yrotation
      JOINT LeftFoot
      {
        OFFSET 18 0 0
        CHANNELS 3 Zrotation Xrotation Yrotation
        End Site
        {
          OFFSET 0 -10.8 0
        }
      }
    }
  }
  JOINT RightUpLeg
  {
    OFFSET 5.98425 -7.66598 -4.78879
    CHANNELS 3 Zrotation Xrotation Yrotation
    JOINT RightLeg
    {
      OFFSET 16 0 0
      CHANNELS 3 Zrotation Xrotation Yrotation
      JOINT RightFoot
      {
        OFFSET 18 0 0
        CHANNELS 3 Zrotation Xrotation Yrotation
        End Site
        {
          OFFSET 0 -10.8 0
        }
      }
    }
  }
  JOINT Tail
  {
    OFFSET 6.83696 -0.722574 0
    CHANNELS 3 Zrotation Xrotation Yrotation
    JOINT Tail1
    {
      OFFSET 12 0 0
      CHANNELS 3 Zrotation Xrotation Yrotation
      End Site
      {
        OFFSET 12 0 0
      }
    }
  }
}
MOTION
Frames:	7
Frame Time:	0.0166667
-17.5459 8.91273 127.543 100.908 51.5361 166.572 -131.756 -2.96494 -11.1376 1.83271 1.57457 7.26456 -0.304912 0.377769 2.81764 -110.4 84.3174 142.363 -109.669 -35.4751 -138.37 102.569 -66.1796 -143.93 -69.3054 9.21591 -0.370901 6.05857 0.259939 -7.93825 76.68 -28.6989 46.5115 76.7267 -74.6002 -24.9126 -74.824 -13.1592 -0.954354 4.16142 -0.00465631 -0.16373 -116.517 38.5872 -18.5388 163.19 51.4192 -2.70565 -36.0752 -3.38139 17.7022 -163.436 -68.409 -44.2341 158.995 -50.925 -8.79188 -36.2235 -2.84595 -40.0008 83.5192 -33.2984 14.5259 16.353 33.457 -9.37612 
-17.5456 8.89186 127.54 100.945 51.6078 166.554 -131.672 -2.97869 -11.0377 1.67165 1.51707 7.20804 -0.427614 0.401236 2.82276 -110.713 84.356 142.495 -109.616 -35.4238 -138.326 103.303 -66.4405 -143.348 -69.4407 7.67058 -0.363115 7.30924 0.344849 -9.14884 76.7088 -28.6468 46.4926 76.7176 -74.7477 -24.7122 -74.6941 -13.4714 -1.02371 3.68315 0.00437741 -0.0289093 -116.717 38.6613 -18.2643 163.258 51.4129 -2.70475 -36.0534 -3.37967 17.871 -164.58 -68.6418 -45.3827 158.982 -51.2434 -8.85548 -36.2203 -2.82674 -40.3751 83.5094 -33.1862 14.417 16.2832 33.3634 -9.30826 
-17.5209 8.88781 127.526 101.126 51.6062 166.381 -131.476 -3.01727 -11.0433 1.47585 1.48835 7.21664 -0.425529 0.549524 2.83244 -112.638 84.5964 143.437 -109.505 -35.3176 -138.236 103.2 -66.4303 -143.31 -69.1506 8.1481 -0.504071 6.95801 0.342926 -9.05885 76.707 -28.6387 46.4659 77.572 -74.5783 -24.1204 -74.8078 -13.4194 -0.986603 4.03309 0.0774751 -0.719984 -117.551 37.8893 -18.1818 163.057 50.3128 -2.68464 -35.702 -3.37098 17.7701 -163.067 -68.8264 -44.2297 158.948 -51.3529 -8.87035 -36.7003 -2.65979 -39.9433 83.6468 -33.0357 14.3893 16.22 33.2631 -9.24737 
-17.4947 8.90669 127.519 101.286 51.5731 166.291 -131.334 -2.97481 -11.0318 1.41187 1.53787 7.2162 -0.692646 0.648989 2.87411 -114.263 84.9361 144.631 -109.43 -35.2387 -138.186 102.473 -66.1059 -143.641 -68.6134 10.2019 -0.681857 5.12815 0.287502 -7.94032 76.6813 -28.6964 46.5106 78.3008 -74.3579 -23.7185 -74.8388 -13.5003 -0.942987 4.17314 0.156133 -1.36865 -118.162 37.2951 -18.367 162.802 49.4059 -2.66473 -35.372 -3.36363 17.6223 -161.841 -68.9405 -43.5343 158.923 -51.613 -8.89642 -37.1687 -2.47815 -39.673 83.7666 -33.0555 14.4118 16.2166 33.2424 -9.23093 
-17.4801 8.93378 127.513 100.996 51.6775 166.51 -131.536 -2.92003 -10.9725 1.48117 1.56011 7.1376 -1.15337 0.779407 3.10466 -116.94 85.5104 147.121 -109.44 -35.2231 -138.247 102.738 -65.8672 -143.028 -68.3099 10.3215 -0.834363 4.76123 0.321289 -8.13118 76.6888 -28.7114 46.5757 78.5035 -74.2366 -23.6549 -74.7111 -13.5609 -0.954895 3.86081 0.156415 -1.21844 -118.4 37.3793 -18.291 162.839 49.4706 -2.67965 -35.3294 -3.35015 17.7355 -162.907 -69.1015 -44.4419 158.902 -51.7506 -8.9399 -37.1046 -2.49126 -39.93 83.465 -33.2779 14.4029 16.4082 33.4239 -9.38669 
-17.481 8.92952 127.512 101.066 51.7633 166.479 -131.45 -2.86826 -10.7657 1.43018 1.5464 6.92705 -1.68128 0.944339 2.95054 -117.142 84.9121 147.063 -109.477 -35.2273 -138.34 101.985 -65.4163 -143.01 -68.2136 10.5396 -1.09775 4.40836 0.340876 -8.09402 76.6917 -28.6916 46.5378 79.1281 -74.0905 -23.3327 -74.7491 -13.4715 -0.929025 3.73602 0.138371 -0.949312 -118.569 37.6206 -18.296 162.916 49.8908 -2.70555 -34.9898 -3.28121 17.9805 -161.959 -69.2086 -43.4805 158.866 -51.6325 -8.92883 -37.1707 -2.47998 -39.7232 83.4258 -33.3266 14.3259 16.4098 33.4494 -9.40875 
-17.4793 8.93091 127.519 101.162 51.7384 166.392 -131.366 -2.82174 -10.655 1.40573 1.57436 6.75066 -2.23354 1.16853 2.84331 -118.231 84.4705 147.717 -109.434 -35.1549 -138.368 101.798 -64.8647 -142.696 -67.7506 10.887 -1.34442 3.9627 0.306724 -7.60233 76.6607 -28.6864 46.4077 79.4055 -73.9341 -23.3145 -74.6829 -13.4542 -0.872357 3.62078 0.117736 -0.67713 -118.345 37.691 -18.6819 162.93 50.2781 -2.73833 -34.7883 -3.23516 17.9915 -161.927 -69.3105 -43.5179 158.783 -52.0397 -9.01519 -37.2715 -2.43068 -39.7637 83.5248 -33.3367 14.4345 16.4148 33.4486 -9.43971 
